<?xml version="1.0" encoding="UTF-8"?>
<svg xmlns="http://www.w3.org/2000/svg" xmlns:xlink="http://www.w3.org/1999/xlink" width="80px" height="27px" viewBox="0 0 79 27" version="1.1">
<g id="surface1">
<path style=" stroke:none;fill-rule:nonzero;fill:rgb(0%,0%,0%);fill-opacity:1;" d="M 26.78125 2.550781 C 26.648438 1.132812 24.941406 0.0976562 21.507812 0.0976562 C 19.417969 0.0976562 17.890625 0.390625 16.792969 0.863281 C 15.714844 1.3125 15.152344 1.964844 15.019531 2.664062 C 14.839844 3.609375 15.488281 4.214844 16.207031 4.621094 C 16.882812 5.027344 17.871094 5.386719 19.082031 5.746094 C 20.183594 6.105469 20.789062 6.285156 21.28125 6.488281 C 21.796875 6.714844 22.023438 6.984375 21.957031 7.367188 C 21.910156 7.59375 21.753906 7.816406 21.417969 7.976562 C 21.082031 8.132812 20.542969 8.289062 19.777344 8.289062 C 18.609375 8.289062 18.09375 7.863281 17.960938 7.277344 L 13.714844 7.390625 C 13.828125 8.851562 15.46875 9.957031 19.507812 9.957031 C 21.84375 9.957031 23.460938 9.527344 24.558594 9.011719 C 25.726562 8.449219 26.3125 7.726562 26.421875 7.03125 C 26.582031 6.175781 26.019531 5.542969 25.277344 5.117188 C 24.648438 4.757812 23.796875 4.464844 22.605469 4.125 C 21.417969 3.8125 20.902344 3.675781 20.273438 3.429688 C 19.574219 3.179688 19.285156 2.867188 19.351562 2.484375 C 19.375 2.28125 19.554688 2.101562 19.824219 1.964844 C 20.160156 1.832031 20.652344 1.742188 21.125 1.742188 C 22.15625 1.742188 22.5625 2.144531 22.71875 2.617188 Z M 26.78125 2.550781 "/>
<path style=" stroke:none;fill-rule:nonzero;fill:rgb(0%,0%,0%);fill-opacity:1;" d="M 49.1875 7.164062 C 48.804688 5.992188 47.863281 3.675781 46.3125 0.300781 L 41.9375 0.300781 L 40.679688 9.796875 L 43.574219 9.796875 C 44.023438 6.398438 44.269531 4.082031 44.359375 2.933594 L 44.449219 2.933594 C 44.808594 4.082031 45.773438 6.398438 47.324219 9.796875 L 51.703125 9.796875 L 52.957031 0.300781 L 50.039062 0.300781 C 49.589844 3.675781 49.34375 5.992188 49.277344 7.164062 Z M 49.1875 7.164062 "/>
<path style=" stroke:none;fill-rule:nonzero;fill:rgb(0%,0%,0%);fill-opacity:1;" d="M 34.414062 0.0976562 C 30.800781 0.0976562 28.242188 1.671875 27.792969 5.003906 L 27.792969 5.027344 C 27.34375 8.378906 29.5 9.957031 33.113281 9.957031 C 36.726562 9.957031 39.285156 8.378906 39.734375 5.027344 C 40.183594 1.695312 38.03125 0.0976562 34.414062 0.0976562 M 36.480469 5.027344 C 36.144531 7.503906 34.730469 8.289062 33.335938 8.289062 C 31.945312 8.289062 30.710938 7.503906 31.046875 5.027344 C 31.382812 2.527344 32.796875 1.742188 34.191406 1.742188 L 34.214844 1.742188 C 35.605469 1.742188 36.816406 2.550781 36.480469 5.027344 "/>
<path style=" stroke:none;fill-rule:nonzero;fill:rgb(0%,0%,0%);fill-opacity:1;" d="M 60.140625 0.300781 L 55.089844 0.300781 L 53.835938 9.796875 L 58.976562 9.796875 C 63.6875 9.796875 65.550781 8.019531 65.957031 4.980469 C 66.382812 1.875 64.609375 0.300781 60.140625 0.300781 M 62.703125 5.050781 C 62.386719 7.390625 61.085938 8.15625 58.996094 8.15625 L 57.246094 8.15625 L 58.054688 1.941406 L 59.78125 1.941406 C 62.320312 1.941406 62.949219 3.25 62.703125 5.050781 "/>
<path style=" stroke:none;fill-rule:nonzero;fill:rgb(0%,0%,0%);fill-opacity:1;" d="M 75.09375 0.300781 L 70.761719 0.300781 L 65.351562 9.796875 L 68.761719 9.796875 L 69.839844 7.523438 L 74.105469 7.523438 L 74.601562 9.796875 L 78.011719 9.796875 Z M 70.671875 5.882812 L 71.679688 3.765625 C 71.996094 3.136719 72.332031 2.460938 72.648438 1.671875 L 72.804688 1.671875 C 72.917969 2.484375 73.074219 3.113281 73.230469 3.765625 L 73.679688 5.882812 Z M 70.671875 5.882812 "/>
<path style=" stroke:none;fill-rule:nonzero;fill:rgb(0%,37.647059%,61.176471%);fill-opacity:1;" d="M 33.292969 26.949219 C 33.292969 26.949219 73.679688 23.953125 78.574219 18.011719 C 82.144531 13.667969 55.226562 12.882812 43.84375 12.476562 C 32.484375 12.070312 14.164062 11.777344 10.058594 11.351562 C -3.367188 9.976562 7.722656 8.828125 11.898438 7.90625 C 11.898438 7.90625 -12.03125 10.742188 8.125 12.566406 C 11.316406 12.859375 26.402344 12.992188 37.761719 13.375 C 49.121094 13.78125 74.691406 15.761719 69.121094 18.777344 C 59.265625 24.113281 33.292969 26.949219 33.292969 26.949219 "/>
</g>
</svg>
